<?xml version="1.0" encoding="UTF-8"?>
<svg version="1.1" xmlns="http://www.w3.org/2000/svg" width="1454" height="335">
<path d="M0 0 C2.0910032 0.00113084 4.18200797 0.00049 6.27301025 -0.00177002 C11.90012485 -0.00290884 17.5268923 0.02046473 23.15392685 0.04852581 C29.05287627 0.07367925 34.9518353 0.07589239 40.85083008 0.08062744 C51.99931976 0.09301647 63.1476509 0.12578259 74.29607105 0.1660254 C89.376524 0.21927 104.45702088 0.24072151 119.53754425 0.26403427 C143.26603346 0.30154718 166.99418826 0.3812652 190.72265625 0.45410156 C190.72265625 55.56410156 190.72265625 110.67410156 190.72265625 167.45410156 C169.00453125 167.47472656 147.28640625 167.49535156 124.91015625 167.51660156 C118.04614014 167.52570557 111.18212402 167.53480957 104.11010742 167.54418945 C95.74475098 167.54870605 95.74475098 167.54870605 91.83174133 167.54954529 C89.09185498 167.55108345 86.35201428 167.5542347 83.61213684 167.55967712 C79.46822238 167.5677998 75.32434232 167.5680086 71.18041992 167.56762695 C69.95459041 167.57122506 68.72876089 167.57482317 67.46578503 167.57853031 C65.79707332 167.57646407 65.79707332 167.57646407 64.09465027 167.57435608 C62.63867825 167.57573877 62.63867825 167.57573877 61.15329266 167.57714939 C58.72265625 167.45410156 58.72265625 167.45410156 55.72265625 166.45410156 C55.72265625 217.93410156 55.72265625 269.41410156 55.72265625 322.45410156 C-41.89612828 322.45410156 -41.89612828 322.45410156 -67.43359375 297.33300781 C-93.01280778 269.73697114 -92.60489975 236.10810576 -92.54599476 200.86309385 C-92.54084442 196.80282058 -92.5456506 192.74255523 -92.54876709 188.68228149 C-92.5523801 181.87280627 -92.54767756 175.06337479 -92.53808594 168.25390625 C-92.52719779 160.43477801 -92.53074044 152.61575409 -92.54173875 144.79662836 C-92.55087786 138.02228205 -92.5520651 131.24796674 -92.54686141 124.47361624 C-92.54377891 120.45415837 -92.54322788 116.43474919 -92.54993439 112.41529465 C-92.59946925 77.86639917 -91.88104145 49.16272555 -66.83984375 22.70410156 C-60.55555173 16.6911767 -53.32054355 12.28032963 -45.65234375 8.26660156 C-45.06267822 7.94570557 -44.4730127 7.62480957 -43.86547852 7.29418945 C-29.87934687 0.24928272 -15.27690946 -0.11700663 0 0 Z M-56.56640625 39.12597656 C-66.93720645 52.87602627 -71.45759865 67.27828298 -71.39086914 84.40673828 C-71.39101517 85.39272507 -71.39116119 86.37871185 -71.39131165 87.39457703 C-71.39061714 90.64100372 -71.38284637 93.88737244 -71.375 97.13378906 C-71.37313418 99.38965829 -71.37171105 101.64552793 -71.37071228 103.90139771 C-71.36690002 109.8295606 -71.35708076 115.75769887 -71.3460083 121.68585205 C-71.33576641 127.73880683 -71.33120871 133.79176561 -71.32617188 139.84472656 C-71.31545733 151.71452903 -71.29839641 163.58431325 -71.27734375 175.45410156 C-70.80176025 175.04522202 -70.32617676 174.63634247 -69.83618164 174.21507263 C-68.89633423 173.40804649 -68.89633423 173.40804649 -67.9375 172.5847168 C-67.3175415 172.05208725 -66.69758301 171.5194577 -66.05883789 170.97068787 C-45.42675492 153.40659168 -22.77929449 149.16590405 3.56982422 149.13525391 C5.42408679 149.12593515 7.27834523 149.11576365 9.13259888 149.10481262 C14.12333752 149.07771785 19.11404827 149.0624247 24.10484076 149.04938459 C29.33653779 149.03366339 34.5681786 149.00690224 39.79983521 148.98135376 C49.68748573 148.93472414 59.57514702 148.89790389 69.46285069 148.86468089 C80.72780854 148.82634719 91.9927097 148.77696679 103.25761962 148.72669673 C126.41259502 148.62361233 149.5675946 148.53573396 172.72265625 148.45410156 C172.72265625 131.29410156 172.72265625 114.13410156 172.72265625 96.45410156 C134.77265625 96.45410156 96.82265625 96.45410156 57.72265625 96.45410156 C57.72265625 90.51410156 57.72265625 84.57410156 57.72265625 78.45410156 C95.67265625 78.45410156 133.62265625 78.45410156 172.72265625 78.45410156 C172.72265625 58.32410156 172.72265625 38.19410156 172.72265625 17.45410156 C148.48682782 17.36362782 124.25113722 17.29001879 100.0151825 17.24685287 C88.76071097 17.22627288 77.50635223 17.19823994 66.25195312 17.15234375 C56.43672385 17.11233585 46.6215763 17.08663563 36.80626774 17.07774758 C31.61446572 17.07255638 26.42289739 17.06045129 21.23117065 17.03118134 C16.3326446 17.00379125 11.43444589 16.99570367 6.53585052 17.00167084 C4.74938928 17.00058106 2.96291573 16.99276898 1.1765213 16.97727966 C-20.74926453 16.79668352 -41.64500703 21.70918976 -56.56640625 39.12597656 Z M-53.27734375 187.45410156 C-67.55951445 202.4337031 -70.81983039 223.05192973 -70.5546875 242.85253906 C-69.96772949 260.18094125 -62.17105798 275.91594269 -49.77734375 287.86425781 C-25.76132079 308.77355687 3.50373579 303.45410156 34.72265625 303.45410156 C34.72265625 258.24410156 34.72265625 213.03410156 34.72265625 166.45410156 C-13.05756475 164.9790868 -13.05756475 164.9790868 -53.27734375 187.45410156 Z " fill="#34C03E" transform="translate(92.27734375,-0.4541015625)"/>
<path d="M0 0 C3.14889638 2.7945334 6.14138717 5.70779342 9.1171875 8.68359375 C9.4471875 2.74359375 9.7771875 -3.19640625 10.1171875 -9.31640625 C19.3571875 -9.31640625 28.5971875 -9.31640625 38.1171875 -9.31640625 C38.1171875 68.23359375 38.1171875 145.78359375 38.1171875 225.68359375 C27.8871875 225.68359375 17.6571875 225.68359375 7.1171875 225.68359375 C6.7871875 195.32359375 6.4571875 164.96359375 6.1171875 133.68359375 C4.4671875 135.66359375 2.8171875 137.64359375 1.1171875 139.68359375 C-12.04182037 150.84404923 -25.88077216 154.04102838 -42.6953125 153.99609375 C-43.88962891 154.01220703 -45.08394531 154.02832031 -46.31445312 154.04492188 C-65.65368068 154.05544949 -81.37440039 146.59204125 -95.35546875 133.33984375 C-114.47830474 113.13458309 -119.59008958 88.0139955 -118.97167969 61.10302734 C-118.2116167 40.41010369 -109.62363013 20.33295107 -94.48681641 6.08740234 C-70.08543761 -15.26844668 -26.60882632 -21.38080489 0 0 Z M-72.1953125 35.43359375 C-82.65362884 49.37801554 -84.60446665 65.35885869 -82.41796875 82.28125 C-79.9182115 94.69128746 -73.66343767 105.67726655 -63.5703125 113.46875 C-53.05356006 120.32823436 -41.1037282 122.09136714 -28.8125 120.21484375 C-16.25896127 117.51791983 -7.14095793 110.78259642 0.3046875 100.49609375 C5.02200127 93.10479463 7.70892265 84.43679223 8.1171875 75.68359375 C8.18035156 74.82765625 8.24351562 73.97171875 8.30859375 73.08984375 C8.89284077 59.06791532 4.87613774 44.82239888 -4.140625 33.96484375 C-12.33001611 25.23633912 -21.90706381 20.01958808 -33.99609375 19.34765625 C-49.53929457 19.01313834 -61.85053299 23.2290786 -72.1953125 35.43359375 Z " fill="#36C23E" transform="translate(705.8828125,109.31640625)"/>
<path d="M0 0 C0.72901016 -0.00807175 1.45802032 -0.01614349 2.2091217 -0.02445984 C3.74787076 -0.03821561 5.28664924 -0.04897532 6.82543945 -0.05688477 C8.36589809 -0.06832182 9.90631975 -0.08864006 11.4465332 -0.1184082 C31.09550363 -0.49663873 49.25429549 3.55995834 63.93359375 17.59375 C75.58417282 31.05354869 78.39842799 46.93390198 78.33618164 64.24414062 C78.33632767 65.3182016 78.33647369 66.39226257 78.33662415 67.49887085 C78.335931 71.02661198 78.32816672 74.55429941 78.3203125 78.08203125 C78.31844619 80.53682425 78.31702329 82.99161763 78.31602478 85.44641113 C78.31221635 91.89075763 78.30240041 98.3350814 78.2913208 104.77941895 C78.28107063 111.36205742 78.27651944 117.94469959 78.27148438 124.52734375 C78.26077659 137.43100115 78.24319339 150.33463575 78.22265625 163.23828125 C67.99265625 163.23828125 57.76265625 163.23828125 47.22265625 163.23828125 C46.78515625 155.36328125 46.78515625 155.36328125 46.65454102 152.88720703 C46.48674082 148.93363709 46.48674082 148.93363709 45.22265625 145.23828125 C44.73539063 145.79515625 44.248125 146.35203125 43.74609375 146.92578125 C32.97061399 158.52411583 19.10699167 165.36110899 3.21704102 166.36499023 C-15.40369449 167.04642251 -32.53063611 164.38002612 -47.27734375 151.92578125 C-56.45521891 143.06438455 -61.77208087 131.38862195 -62.01879883 118.61743164 C-62.07621041 104.73203149 -58.34476969 93.51862034 -48.7734375 83.14453125 C-34.0823104 69.11464862 -14.59136442 64.541643 5.09765625 63.67578125 C6.50362061 63.61209351 6.50362061 63.61209351 7.93798828 63.54711914 C19.36285614 63.08070224 30.79079498 63.14504775 42.22265625 63.23828125 C41.57153369 50.18025961 41.57153369 50.18025961 35.22265625 39.23828125 C25.07530813 30.82923688 11.72006037 31.22552565 -0.77734375 32.23828125 C-13.14812075 34.43309652 -21.74045635 40.91548032 -30.77734375 49.23828125 C-34.65425482 47.66412943 -36.97400052 45.17668631 -39.83984375 42.17578125 C-45.13867344 36.71717873 -50.78406467 31.93320974 -56.77734375 27.23828125 C-42.98180983 9.81234366 -22.08363192 0.2401587 0 0 Z M-17.77734375 103.23828125 C-21.69208093 108.26993496 -22.41566425 113.41480816 -22.1640625 119.6875 C-21.42267029 124.57769309 -18.87612506 127.19733054 -15.40234375 130.48828125 C-9.84778649 134.19131942 -4.50054679 134.59826362 1.97265625 134.55078125 C3.17136353 134.54232178 3.17136353 134.54232178 4.39428711 134.53369141 C14.81333404 134.3198262 21.8928749 131.44835681 30.22265625 125.23828125 C31.13015625 124.61953125 32.03765625 124.00078125 32.97265625 123.36328125 C37.92299324 118.68796298 41.83511753 112.1543828 42.37866211 105.25927734 C42.41850632 103.12352868 42.39785717 100.99875112 42.34765625 98.86328125 C42.33863281 98.12722656 42.32960938 97.39117187 42.3203125 96.6328125 C42.29695769 94.83449245 42.26109461 93.03634214 42.22265625 91.23828125 C10.01935416 89.46524406 10.01935416 89.46524406 -17.77734375 103.23828125 Z " fill="#36C23F" transform="translate(1375.77734375,97.76171875)"/>
<path d="M0 0 C10.62787447 8.34881167 15.69405946 22.0613356 17.40570068 35.03546143 C18.39685918 45.09849293 18.02520191 55.29685189 17.98046875 65.39453125 C17.9767323 67.88558844 17.97388832 70.37664711 17.97189331 72.8677063 C17.9643066 79.38104405 17.94470139 85.89429068 17.92248535 92.40759277 C17.9019193 99.07119682 17.89286872 105.73481002 17.8828125 112.3984375 C17.86145027 125.44145245 17.82630925 138.48437622 17.78515625 151.52734375 C7.55515625 151.52734375 -2.67484375 151.52734375 -13.21484375 151.52734375 C-13.21484375 145.25734375 -13.21484375 138.98734375 -13.21484375 132.52734375 C-15.68984375 135.00234375 -15.68984375 135.00234375 -18.21484375 137.52734375 C-31.66926608 149.62932848 -46.96831821 155.41882497 -65.09765625 154.8046875 C-82.00362888 153.30052202 -96.40033207 148.45355303 -108.21484375 135.52734375 C-117.3579808 124.26664033 -120.26589168 111.8127135 -119.21484375 97.52734375 C-116.70184132 84.70385137 -110.29733545 74.37800857 -99.7109375 66.71484375 C-74.20965795 49.88327375 -45.54455539 51.17206398 -16.21484375 51.52734375 C-16.49558261 49.30882666 -16.78667279 47.09161809 -17.08203125 44.875 C-17.24300293 43.64015869 -17.40397461 42.40531738 -17.56982422 41.13305664 C-18.62657923 35.22570814 -20.50461243 29.93580562 -25.07421875 25.875 C-35.47585055 18.9204206 -49.00632002 19.09642155 -60.95703125 21.1796875 C-71.58609663 24.14919857 -80.14089101 30.17107569 -88.21484375 37.52734375 C-91.04654344 36.23193046 -93.16945093 34.84332306 -95.421875 32.69921875 C-96.30262695 31.86970703 -96.30262695 31.86970703 -97.20117188 31.0234375 C-97.80380859 30.44722656 -98.40644531 29.87101562 -99.02734375 29.27734375 C-103.65205522 24.88966766 -108.34483051 20.6428479 -113.21484375 16.52734375 C-112.37360165 12.08699735 -109.95978203 10.07459355 -106.58984375 7.27734375 C-106.01226318 6.79644287 -105.43468262 6.31554199 -104.83959961 5.82006836 C-77.41153465 -16.26262616 -29.58005159 -19.66786499 0 0 Z M-72.77734375 88.83984375 C-76.91202621 93.39859621 -79.39235393 97.79254059 -79.71484375 104.02734375 C-79.46636652 108.82295428 -78.03830943 112.64837688 -75.21484375 116.52734375 C-68.70056374 122.28414934 -60.37013763 122.97226366 -51.97265625 122.7734375 C-41.37480476 121.82773687 -32.05274398 116.89953288 -24.83984375 109.15234375 C-18.73422635 101.83793745 -16.05721277 95.29044129 -16.15234375 85.77734375 C-16.16136719 84.606875 -16.17039062 83.43640625 -16.1796875 82.23046875 C-16.19128906 81.3384375 -16.20289063 80.44640625 -16.21484375 79.52734375 C-20.63145276 79.46844355 -25.04795844 79.43344858 -29.46484375 79.40234375 C-31.31722656 79.37720703 -31.31722656 79.37720703 -33.20703125 79.3515625 C-46.62441272 79.2809447 -61.60234622 80.50785567 -72.77734375 88.83984375 Z " fill="#36C23F" transform="translate(1028.21484375,109.47265625)"/>
<path d="M0 0 C1.58385498 0.00737183 1.58385498 0.00737183 3.19970703 0.01489258 C18.82521271 0.2494556 31.40072013 3.97897555 42.9296875 14.9296875 C54.99881663 27.66700371 57.533803 44.17627023 57.41455078 61.13964844 C57.41484283 62.2533078 57.41513489 63.36696716 57.41543579 64.51437378 C57.41405616 68.15029023 57.39855992 71.78599489 57.3828125 75.421875 C57.3790775 77.96063119 57.37623283 80.49938882 57.37423706 83.03814697 C57.36741314 89.00891296 57.35169323 94.97961239 57.33153808 100.95034432 C57.30907096 107.75580301 57.29815865 114.56126552 57.28814721 121.36675215 C57.26732333 135.34871673 57.23069097 149.33058753 57.1875 163.3125 C44.6475 163.3125 32.1075 163.3125 19.1875 163.3125 C19.19797363 160.45787109 19.20844727 157.60324219 19.21923828 154.66210938 C19.25254655 145.17469031 19.27453654 135.68726849 19.29112434 126.19980621 C19.30151121 120.45397316 19.31557608 114.7082006 19.33837891 108.96240234 C19.36029059 103.40565913 19.37210683 97.84897368 19.37725449 92.29219055 C19.38091763 90.18417961 19.38806962 88.07617142 19.39896011 85.96818542 C20.34112254 61.38618843 20.34112254 61.38618843 11 39.5625 C1.44117447 31.91543958 -9.60246609 31.34447842 -21.4140625 32.5859375 C-31.1167857 34.40305527 -39.49139819 40.01330691 -45.375 47.8125 C-52.32719131 58.06660353 -53.93331934 69.33685278 -54.01782227 81.46069336 C-54.02772186 82.34929047 -54.03762146 83.23788757 -54.04782104 84.15341187 C-54.07922871 87.06969605 -54.10411089 89.98599649 -54.12890625 92.90234375 C-54.14949371 94.93258572 -54.17049064 96.96282357 -54.19187927 98.99305725 C-54.24691489 104.32110246 -54.29640538 109.64918515 -54.34472656 114.97729492 C-54.39507721 120.42044386 -54.4506923 125.86353875 -54.50585938 131.30664062 C-54.61321438 141.97521584 -54.71422228 152.6438373 -54.8125 163.3125 C-67.0225 163.3125 -79.2325 163.3125 -91.8125 163.3125 C-91.8125 110.1825 -91.8125 57.0525 -91.8125 2.3125 C-79.9325 2.3125 -68.0525 2.3125 -55.8125 2.3125 C-55.3175 13.6975 -55.3175 13.6975 -54.8125 25.3125 C-53.224375 23.641875 -51.63625 21.97125 -50 20.25 C-36.11862765 6.13993948 -19.56228708 -0.10772528 0 0 Z " fill="#36C23F" transform="translate(513.8125,97.6875)"/>
<path d="M0 0 C0.91765137 0.00563965 1.83530273 0.0112793 2.78076172 0.01708984 C17.18881343 0.27216666 29.64665166 3.40908279 40.5625 13.3125 C51.94101339 25.46589423 55.31809124 41.45443095 55.15307617 57.62036133 C55.15351425 58.773181 55.15395233 59.92600067 55.15440369 61.11375427 C55.1523357 64.87419361 55.12909908 68.63417108 55.10546875 72.39453125 C55.09986572 75.02153785 55.09559897 77.6485476 55.09260559 80.27555847 C55.08333846 86.45174796 55.05879827 92.6277752 55.02855712 98.80389374 C54.9948454 105.84394151 54.97848527 112.88399765 54.96347082 119.92410624 C54.93224285 134.38699921 54.8772989 148.84971728 54.8125 163.3125 C43.5925 163.3125 32.3725 163.3125 20.8125 163.3125 C20.79791748 160.15381348 20.78333496 156.99512695 20.76831055 153.74072266 C20.71788553 143.28324095 20.65127636 132.8259069 20.57678509 122.36857033 C20.53213224 116.03072007 20.49286471 109.69293335 20.46606445 103.35498047 C20.43998106 97.23404292 20.39954253 91.11335051 20.34931374 84.99256516 C20.33267915 82.66193068 20.32114372 80.33125383 20.31488609 78.00056839 C20.30520811 74.72619413 20.27710376 71.45244224 20.24487305 68.17822266 C20.24630814 67.22299713 20.24774323 66.26777161 20.2492218 65.28359985 C20.11725551 55.75149953 17.89253891 46.84266313 11.8125 39.3125 C6.01756983 34.08292887 -2.67647559 32.23141857 -10.375 32 C-19.90767375 32.7813667 -27.98572047 35.22210761 -35.01171875 42.09765625 C-43.74236724 52.80754495 -44.30260522 65.86234894 -44.39282227 79.07666016 C-44.40272186 79.99495605 -44.41262146 80.91325195 -44.42282104 81.859375 C-44.45409166 84.85674574 -44.47905537 87.85413227 -44.50390625 90.8515625 C-44.52450562 92.94477725 -44.54550282 95.03798811 -44.56687927 97.13119507 C-44.62179208 102.6120894 -44.67133579 108.09301933 -44.71972656 113.57397461 C-44.77016793 119.17825448 -44.82573526 124.78248333 -44.88085938 130.38671875 C-44.98806374 141.361937 -45.08911646 152.33719914 -45.1875 163.3125 C-56.4075 163.3125 -67.6275 163.3125 -79.1875 163.3125 C-79.1875 110.1825 -79.1875 57.0525 -79.1875 2.3125 C-68.2975 2.3125 -57.4075 2.3125 -46.1875 2.3125 C-45.6925 11.7175 -45.6925 11.7175 -45.1875 21.3125 C-44.1975 20.11625 -43.2075 18.92 -42.1875 17.6875 C-31.05077554 5.05845446 -16.56485231 -0.10722579 0 0 Z " fill="#37C440" transform="translate(1147.1875,97.6875)"/>
<path d="M0 0 C11.22 0 22.44 0 34 0 C34.029729 4.58600098 34.029729 4.58600098 34.06005859 9.26464844 C34.12715206 19.39878811 34.20478833 29.53282764 34.28752708 39.66685104 C34.33734038 45.80733763 34.38367119 51.94780825 34.421875 58.08837891 C34.45891751 64.02124744 34.5053277 69.95397732 34.55806351 75.88672638 C34.57650711 78.14314578 34.59165152 80.39959478 34.60334396 82.65605927 C33.62897738 104.88340587 33.62897738 104.88340587 43 124 C49.67943758 129.35807058 58.94793031 128.82553124 67.07666016 128.23193359 C71.2405144 127.72981865 74.5394084 126.30454244 78 124 C78.85464844 123.45666016 78.85464844 123.45666016 79.7265625 122.90234375 C84.63053494 119.33911254 87.283283 114.33718095 88.53477478 108.50997925 C89.14731637 103.88854389 89.17740826 99.3374189 89.20532227 94.68017578 C89.21522186 93.65517471 89.22512146 92.63017365 89.23532104 91.57411194 C89.26682071 88.19786868 89.29164781 84.82161136 89.31640625 81.4453125 C89.33698573 79.09975832 89.35798247 76.75420776 89.37937927 74.40866089 C89.43449719 68.24380434 89.48395175 62.07891489 89.53222656 55.91400146 C89.58251672 49.61972129 89.63816353 43.32548873 89.69335938 37.03125 C89.8008152 24.68753921 89.90179284 12.34378784 90 0 C101.55 0 113.1 0 125 0 C125 53.13 125 106.26 125 161 C115.76 161 106.52 161 97 161 C96.67 154.73 96.34 148.46 96 142 C94.5459375 143.7634375 94.5459375 143.7634375 93.0625 145.5625 C82.36931751 157.69144046 70.04225137 162.84345656 54.13671875 164.25390625 C41.2509995 164.79444386 28.79856681 161.56271153 19 153 C18.29488281 152.42636719 17.58976563 151.85273438 16.86328125 151.26171875 C5.57350109 141.21919049 1.31074131 125.57094334 0 111 C-0.13358362 107.30011683 -0.12671399 103.60429465 -0.11352539 99.90234375 C-0.11367142 98.81852921 -0.11381744 97.73471466 -0.1139679 96.61805725 C-0.11327469 93.0578507 -0.10551008 89.49769734 -0.09765625 85.9375 C-0.09578997 83.46028675 -0.09436706 80.98307313 -0.09336853 78.50585938 C-0.08955992 72.00232922 -0.0797438 65.49882158 -0.06866455 58.99530029 C-0.05841479 52.35233829 -0.05386328 45.70937408 -0.04882812 39.06640625 C-0.03812001 26.04425938 -0.02053666 13.02213509 0 0 Z " fill="#36C340" transform="translate(764,100)"/>
<path d="M0 0 C10.89 0 21.78 0 33 0 C33.69757891 3.48789457 34.12387567 5.99715303 34.11352539 9.4230957 C34.11344986 10.26358963 34.11337433 11.10408356 34.11329651 11.970047 C34.10813522 12.8629393 34.10297394 13.7558316 34.09765625 14.67578125 C34.0962413 15.6009404 34.09482635 16.52609955 34.09336853 17.47929382 C34.08778715 20.42372927 34.07523805 23.36808767 34.0625 26.3125 C34.05748259 28.31314994 34.05292011 30.31380108 34.04882812 32.31445312 C34.03867625 37.20968872 34.01909717 42.10475848 34 47 C53.8 47.495 53.8 47.495 74 48 C74 57.9 74 67.8 74 78 C60.8 78 47.6 78 34 78 C34.06176887 94.13200845 34.06176887 94.13200845 34.16015625 110.26367188 C34.20842916 116.84725174 34.25249728 123.43066467 34.27099609 130.0144043 C34.2861874 135.32493403 34.32067728 140.63502583 34.36830902 145.94536018 C34.38309725 147.96700284 34.39103954 149.98870802 34.39188385 152.01040459 C34.39426295 154.85172588 34.42141838 157.69184613 34.45410156 160.53295898 C34.4490712 161.36086945 34.44404083 162.18877991 34.43885803 163.04177856 C34.54427754 169.00101376 35.96718359 173.84087471 39 179 C42.85821529 182.44931042 46.38484131 182.3786476 51.4375 182.3125 C52.71496094 182.30863281 53.99242187 182.30476562 55.30859375 182.30078125 C58.86833055 182.01072862 61.68400452 181.28642174 65 180 C74 199.33333333 74 199.33333333 74 206 C59.37400115 212.80125454 41.28192663 214.58052402 25.6796875 210.03515625 C15.35569176 206.04702379 7.65175914 198.00724622 3.1443634 187.97718811 C-1.76251731 175.21139459 -1.40281312 161.86039539 -1.29296875 148.41015625 C-1.28735986 146.36893529 -1.28309589 144.32771024 -1.28010559 142.28648376 C-1.2687585 136.9649807 -1.23938089 131.64373098 -1.20599365 126.32232666 C-1.17507183 120.87182032 -1.16155342 115.42127226 -1.14648438 109.97070312 C-1.11449954 99.31367398 -1.06181679 88.65689788 -1 78 C-9.58 78 -18.16 78 -27 78 C-27.02291394 73.88822073 -27.04283951 69.77660342 -27.05493164 65.66479492 C-27.0599708 64.26504772 -27.06680216 62.8653058 -27.07543945 61.46557617 C-27.0875232 59.45754223 -27.09269807 57.44947043 -27.09765625 55.44140625 C-27.10289307 54.23170166 -27.10812988 53.02199707 -27.11352539 51.77563477 C-27 49 -27 49 -26 48 C-24.07332493 47.91251793 -22.14348139 47.89302666 -20.21484375 47.90234375 C-19.16159912 47.90484131 -18.10835449 47.90733887 -17.02319336 47.90991211 C-15.67491455 47.91901611 -14.32663574 47.92812012 -12.9375 47.9375 C-8.668125 47.958125 -4.39875 47.97875 0 48 C0 32.16 0 16.32 0 0 Z " fill="#36C23F" transform="translate(1236,52)"/>
<path d="M0 0 C12.54 0 25.08 0 38 0 C38 53.13 38 106.26 38 161 C25.46 161 12.92 161 0 161 C0 107.87 0 54.74 0 0 Z " fill="#35C13F" transform="translate(350,100)"/>
<path d="M0 0 C6.22580419 4.20504598 9.4821739 9.73167794 11.83203125 16.78125 C12.73383904 26.62721697 11.14494127 33.77491522 5.08203125 41.59375 C-0.59115035 47.78398106 -7.71883069 49.7014704 -15.85546875 50.09375 C-23.29406909 49.98305654 -29.57896508 47.62244319 -35.04296875 42.53125 C-40.1521024 36.87987339 -43.2816378 30.53916246 -43.16796875 22.78125 C-42.38885209 14.07183877 -39.27802633 7.47465125 -32.91796875 1.46875 C-23.09723993 -6.33256488 -10.60838409 -5.96363214 0 0 Z " fill="#35C03F" transform="translate(383.16796875,15.21875)"/>
<path d="M0 0 C10.89 0 21.78 0 33 0 C33 5.94 33 11.88 33 18 C32.67 18 32.34 18 32 18 C32 12.39 32 6.78 32 1 C22.1 1.33 12.2 1.66 2 2 C1.67 54.14 1.34 106.28 1 160 C11.56 160 22.12 160 33 160 C32.97381592 157.0189624 32.94763184 154.0379248 32.9206543 150.96655273 C32.83744947 141.06808943 32.78243489 131.16960985 32.74093914 121.27088833 C32.714952 115.27488497 32.67975407 109.27924281 32.62280273 103.28344727 C32.56809337 97.48677633 32.53849783 91.69045073 32.52561378 85.89354134 C32.51644338 83.69255202 32.49853752 81.49157955 32.47134972 79.29073906 C32.29896355 64.74498784 32.22079848 50.7971813 41.75 38.875 C45.68446755 34.91066932 50.0279767 32.44188126 55 30 C55.99 29.34 56.98 28.68 58 28 C60.98248573 27.54637551 63.9864398 27.61920135 67 27.625 C67.85416504 27.62661133 68.70833008 27.62822266 69.58837891 27.62988281 C78.75647729 27.80716168 86.07055433 29.78012956 93 36 C94.94921875 38.55078125 94.94921875 38.55078125 96.6875 41.3125 C97.26886719 42.21613281 97.85023437 43.11976563 98.44921875 44.05078125 C102.02970943 50.86002674 102.28325507 56.97440717 102.22705078 64.52514648 C102.22734283 65.56004715 102.22763489 66.59494781 102.22793579 67.66120911 C102.22654811 71.06459078 102.21101321 74.46775055 102.1953125 77.87109375 C102.19158038 80.23763408 102.18873435 82.60417596 102.18673706 84.97071838 C102.17911632 91.18659767 102.15948114 97.40238287 102.1373291 103.6182251 C102.11683712 109.96617358 102.10772817 116.31413732 102.09765625 122.66210938 C102.07623383 135.10812082 102.04106432 147.55403785 102 160 C112.23 160 122.46 160 133 160 C132.91419934 145.41249223 132.82042003 130.82509293 132.71247292 116.23773193 C132.6625879 109.46287233 132.61614477 102.68802338 132.578125 95.91308594 C132.54136398 89.3642447 132.49458715 82.81551765 132.44193649 76.26678467 C132.42352864 73.77921747 132.40837158 71.29162383 132.39665604 68.80401611 C132.332911 55.72634741 132.12881459 42.92741441 130 30 C134.82469942 37.23704913 134.28368001 46.56069949 134.22705078 54.96728516 C134.22734283 56.11966675 134.22763489 57.27204834 134.22793579 58.45935059 C134.22655195 62.23600011 134.21103535 66.0124478 134.1953125 69.7890625 C134.19157901 72.4203582 134.18873362 75.05165529 134.18673706 77.68295288 C134.18054695 83.88044838 134.16416995 90.07787243 134.14403808 96.27533662 C134.12160174 103.33709275 134.11066629 110.39885247 134.10064721 117.46063542 C134.07980122 131.97379888 134.04315625 146.48688522 134 161 C122.78 161 111.56 161 100 161 C99.98541748 157.84131348 99.97083496 154.68262695 99.95581055 151.42822266 C99.90538553 140.97074095 99.83877636 130.5134069 99.76428509 120.05607033 C99.71963224 113.71822007 99.68036471 107.38043335 99.65356445 101.04248047 C99.62748106 94.92154292 99.58704253 88.80085051 99.53681374 82.68006516 C99.52017915 80.34943068 99.50864372 78.01875383 99.50238609 75.68806839 C99.49270811 72.41369413 99.46460376 69.13994224 99.43237305 65.86572266 C99.43380814 64.91049713 99.43524323 63.95527161 99.4367218 62.97109985 C99.30475551 53.43899953 97.08003891 44.53016313 91 37 C85.20506983 31.77042887 76.51102441 29.91891857 68.8125 29.6875 C59.27982625 30.4688667 51.20177953 32.90960761 44.17578125 39.78515625 C35.44513276 50.49504495 34.88489478 63.54984894 34.79467773 76.76416016 C34.78477814 77.68245605 34.77487854 78.60075195 34.76467896 79.546875 C34.73340834 82.54424574 34.70844463 85.54163227 34.68359375 88.5390625 C34.66299438 90.63227725 34.64199718 92.72548811 34.62062073 94.81869507 C34.56570792 100.2995894 34.51616421 105.78051933 34.46777344 111.26147461 C34.41733207 116.86575448 34.36176474 122.46998333 34.30664062 128.07421875 C34.19943626 139.049437 34.09838354 150.02469914 34 161 C22.78 161 11.56 161 0 161 C0 107.87 0 54.74 0 0 Z " fill="#1D9621" transform="translate(1068,100)"/>
<path d="M0 0 C11.55 0 23.1 0 35 0 C35 53.13 35 106.26 35 161 C25.76 161 16.52 161 7 161 C6.67 154.73 6.34 148.46 6 142 C4.5459375 143.7634375 4.5459375 143.7634375 3.0625 145.5625 C-6.67723845 156.60997888 -18.3064282 162.67102726 -33 164 C-44.10254763 164.62047531 -44.10254763 164.62047531 -49 162 C-47.69546875 161.96261719 -46.3909375 161.92523438 -45.046875 161.88671875 C-25.01854017 161.19046463 -11.48154074 157.62078632 3 143 C3.66 142.01 4.32 141.02 5 140 C5.99 140 6.98 140 8 140 C8 146.6 8 153.2 8 160 C16.58 160 25.16 160 34 160 C34 107.53 34 55.06 34 1 C23.11 1 12.22 1 1 1 C1.01571045 5.86818481 1.01571045 5.86818481 1.03173828 10.8347168 C1.06486147 21.55156237 1.08696309 32.2684102 1.10362434 42.98529339 C1.11406643 49.48363131 1.12823352 55.98191684 1.15087891 62.48022461 C1.17259193 68.75014067 1.18456542 75.02000629 1.18975449 81.28995705 C1.193453 83.68337613 1.20067514 86.07679241 1.21146011 88.47019005 C1.22595436 91.81962448 1.22797878 95.16884985 1.22705078 98.51831055 C1.23424133 99.51021393 1.24143188 100.50211731 1.24884033 101.52407837 C1.23506944 106.11016389 1.21770331 109.84967566 -1 114 C-2 111 -2 111 -1.57533264 108.45748901 C-0.80882987 103.85115399 -0.82262115 99.34232616 -0.79467773 94.68017578 C-0.78477814 93.65517471 -0.77487854 92.63017365 -0.76467896 91.57411194 C-0.73317929 88.19786868 -0.70835219 84.82161136 -0.68359375 81.4453125 C-0.66301427 79.09975832 -0.64201753 76.75420776 -0.62062073 74.40866089 C-0.56550281 68.24380434 -0.51604825 62.07891489 -0.46777344 55.91400146 C-0.41748328 49.61972129 -0.36183647 43.32548873 -0.30664062 37.03125 C-0.1991848 24.68753921 -0.09820716 12.34378784 0 0 Z " fill="#19941E" transform="translate(854,100)"/>
<path d="M0 0 C13.2 0 26.4 0 40 0 C40 9.9 40 19.8 40 30 C26.8 30 13.6 30 0 30 C0.06176887 46.13200845 0.06176887 46.13200845 0.16015625 62.26367188 C0.20842916 68.84725174 0.25249728 75.43066467 0.27099609 82.0144043 C0.2861874 87.32493403 0.32067728 92.63502583 0.36830902 97.94536018 C0.38309725 99.96700284 0.39103954 101.98870802 0.39188385 104.01040459 C0.39426295 106.85172588 0.42141838 109.69184613 0.45410156 112.53295898 C0.4490712 113.36086945 0.44404083 114.18877991 0.43885803 115.04177856 C0.54383288 120.97587805 1.91811528 125.88626191 5 131 C7.3726974 133.00864359 7.3726974 133.00864359 10 134 C10.763125 134.391875 11.52625 134.78375 12.3125 135.1875 C12.869375 135.455625 13.42625 135.72375 14 136 C9.80632522 135.75331325 7.5462876 135.44696258 4.25 132.75 C-1.85402822 125.28952107 -2.15280726 118.3676125 -2.12939453 109.05126953 C-2.13114685 108.18378586 -2.13289917 107.31630219 -2.13470459 106.42253113 C-2.13908055 103.57593748 -2.13620172 100.72940669 -2.1328125 97.8828125 C-2.13348639 95.89981067 -2.13445713 93.91680892 -2.13571167 91.93380737 C-2.13718255 87.78984791 -2.1350523 83.64591007 -2.13037109 79.50195312 C-2.12465177 74.17859252 -2.12797053 68.85528209 -2.13394356 63.53192329 C-2.13754658 59.44344704 -2.13641217 55.3549828 -2.13381577 51.2665062 C-2.13314693 49.30240752 -2.1339734 47.33830777 -2.13629532 45.37421036 C-2.13882 42.64023157 -2.13498492 39.90633584 -2.12939453 37.17236328 C-2.13141876 36.35474014 -2.13344299 35.537117 -2.13552856 34.69471741 C-2.11426725 29.11426725 -2.11426725 29.11426725 -1 28 C1.95705321 27.91131701 4.89065056 27.88479704 7.84765625 27.90234375 C9.17729652 27.90446617 9.17729652 27.90446617 10.53379822 27.90663147 C13.37673254 27.91224785 16.21958931 27.92480309 19.0625 27.9375 C20.98502491 27.94251289 22.90755104 27.94707616 24.83007812 27.95117188 C29.55343964 27.96137352 34.27663258 27.98094563 39 28 C39 19.09 39 10.18 39 1 C26.13 1 13.26 1 0 1 C0 0.67 0 0.34 0 0 Z " fill="#28A62C" transform="translate(1270,100)"/>
<path d="M0 0 C8.77006222 4.1270881 12.60427682 13.4592417 16 22 C19.21624718 31.16630447 19.14770187 40.80286166 19.11352539 50.41650391 C19.11367142 51.51036407 19.11381744 52.60422424 19.1139679 53.73123169 C19.11327645 57.31302946 19.10552031 60.89477391 19.09765625 64.4765625 C19.09578934 66.97333752 19.09436672 69.47011291 19.09336853 71.96688843 C19.08956487 78.51313299 19.07975309 85.05935509 19.06866455 91.60559082 C19.05785748 98.29564986 19.05386099 104.98571592 19.04882812 111.67578125 C19.03812877 124.78386558 19.02054953 137.8919274 19 151 C8.77 151 -1.46 151 -12 151 C-12 144.73 -12 138.46 -12 132 C-11.67 132 -11.34 132 -11 132 C-11 137.94 -11 143.88 -11 150 C-1.76 150 7.48 150 17 150 C16.93691949 135.24752451 16.86156283 120.49524649 16.76428509 105.74295616 C16.71949356 98.89180423 16.68004158 92.04070235 16.65356445 85.18945312 C16.62796476 78.56925937 16.58694964 71.94927304 16.53681374 65.32921219 C16.52021601 62.81208733 16.50865782 60.29492369 16.50238609 57.77775192 C16.87716852 30.96809942 16.87716852 30.96809942 5.5703125 7.28515625 C4.41142143 6.15712323 3.20874528 5.07444025 2 4 C0.6875 1.6875 0.6875 1.6875 0 0 Z " fill="#2AA52D" transform="translate(1027,110)"/>
<path d="M0 0 C0 3.95953061 -1.48440939 5.47590601 -3.6875 8.75 C-13.66066703 24.27435266 -15.30378955 41.6058234 -15.29052734 59.66625977 C-15.29652492 61.31206055 -15.30333325 62.95785855 -15.31088257 64.60365295 C-15.32842818 69.04210836 -15.33323318 73.48048647 -15.33451414 77.91897321 C-15.33594321 80.70253551 -15.34022709 83.48607864 -15.34550858 86.26963615 C-15.3639735 96.01090602 -15.37218394 105.75212142 -15.37060547 115.4934082 C-15.36940617 124.52403658 -15.39047613 133.55442516 -15.4220928 142.58499295 C-15.44838947 150.37825995 -15.45896714 158.1714493 -15.45769465 165.96476024 C-15.45718878 170.60146125 -15.46266087 175.23794901 -15.48405075 179.87460518 C-16.3533343 207.87695028 -16.3533343 207.87695028 -9.80648804 234.7749176 C-9 237 -9 237 -10 240 C-17.44114888 222.39117441 -18.15179991 204.97274744 -18.14526367 186.03442383 C-18.14826567 184.59522415 -18.15167054 183.15602526 -18.15544128 181.71682739 C-18.16417978 177.85079712 -18.16661506 173.98478905 -18.16725707 170.11874986 C-18.16797339 167.69130813 -18.17011857 165.26387186 -18.17275429 162.8364315 C-18.1819742 154.33357771 -18.18609341 145.83073948 -18.18530273 137.32788086 C-18.18470288 129.45721421 -18.19524524 121.58661629 -18.2110464 113.715967 C-18.22420922 106.9120438 -18.229483 100.10814283 -18.22884732 93.30420703 C-18.22859489 89.26116328 -18.23130292 85.21818075 -18.24202538 81.17514992 C-18.39254602 20.01541772 -18.39254602 20.01541772 0 0 Z " fill="#24A028" transform="translate(18,31)"/>
<path d="M0 0 C1.28124756 0.00241699 1.28124756 0.00241699 2.58837891 0.00488281 C11.75647729 0.18216168 19.07055433 2.15512956 26 8.375 C27.94921875 10.92578125 27.94921875 10.92578125 29.6875 13.6875 C30.26886719 14.59113281 30.85023437 15.49476563 31.44921875 16.42578125 C35.02970943 23.23502674 35.28325507 29.34940717 35.22705078 36.90014648 C35.22734283 37.93504715 35.22763489 38.96994781 35.22793579 40.03620911 C35.22654811 43.43959078 35.21101321 46.84275055 35.1953125 50.24609375 C35.19158038 52.61263408 35.18873435 54.97917596 35.18673706 57.34571838 C35.17911632 63.56159767 35.15948114 69.77738287 35.1373291 75.9932251 C35.11683712 82.34117358 35.10772817 88.68913732 35.09765625 95.03710938 C35.07623384 107.48311416 35.04211666 119.92904924 35 132.375 C34.67 132.375 34.34 132.375 34 132.375 C34 97.725 34 63.075 34 27.375 C33.34 27.375 32.68 27.375 32 27.375 C31.84144531 26.7459375 31.68289063 26.116875 31.51953125 25.46875 C29.53306553 18.18138406 27.12453094 12.19469865 21.4375 7.0625 C11.88381973 2.3725115 1.70440181 0.99061509 -8.63671875 3.5625 C-16.66536706 6.32276256 -22.89099881 10.91696963 -27 18.375 C-30.19993821 25.23788998 -31.67264205 31.82939926 -32 39.375 C-32.66 39.375 -33.32 39.375 -34 39.375 C-34.90919629 30.46487633 -32.02362864 21.0747706 -27.203125 13.58203125 C-22.85393555 8.38909905 -18.01857329 5.33086735 -12 2.375 C-7.93724493 -0.33350338 -4.77656446 -0.009191 0 0 Z " fill="#28A92C" transform="translate(1135,127.625)"/>
<path d="M0 0 C0 3 0 3 -1.94921875 5.05078125 C-15.96196734 16.62479185 -28.98189804 20.36014993 -46.8125 20.3125 C-48.60397461 20.33666992 -48.60397461 20.33666992 -50.43164062 20.36132812 C-60.8501306 20.36699959 -70.39937088 18.78617622 -79.6875 13.9375 C-80.68136719 13.43089844 -81.67523437 12.92429688 -82.69921875 12.40234375 C-85 11 -85 11 -86 9 C-82.48347329 10.08200822 -79.19065929 11.36120296 -75.875 12.9375 C-59.81463506 19.99032474 -39.67373013 20.69767997 -23 15 C-22.21109375 14.73316406 -21.4221875 14.46632813 -20.609375 14.19140625 C-12.95494196 11.18048416 -5.62970722 5.98389409 0 0 Z " fill="#26A327" transform="translate(710,243)"/>
<path d="M0 0 C7.0777107 7.48215131 7.56851189 15.10553135 8 25 C5.83371899 21.75057848 5.63094464 20.11832704 5.1875 16.3125 C4.14243717 9.70706471 2.39155194 4.83960773 -2.82421875 0.47265625 C-10.27282023 -4.5760029 -18.04309375 -5.34389804 -26.8125 -5.25 C-27.68745117 -5.24613281 -28.56240234 -5.24226562 -29.46386719 -5.23828125 C-35.79255923 -5.15380483 -41.8506637 -4.57964602 -48 -3 C-35.45567514 -12.61731573 -11.89954922 -9.81712811 0 0 Z " fill="#27A729" transform="translate(1412,135)"/>
<path d="M0 0 C0.99 0 1.98 0 3 0 C1.55927501 2.88144997 -0.69676418 4.80221353 -3 7 C-3.91072266 7.92039063 -3.91072266 7.92039063 -4.83984375 8.859375 C-17.04848572 20.59058405 -30.80688099 24.17638108 -47.40625 24.265625 C-50.09241155 23.99053617 -51.64879948 23.25805469 -54 22 C-52.69546875 21.96261719 -51.3909375 21.92523438 -50.046875 21.88671875 C-30.01854017 21.19046463 -16.48154074 17.62078632 -2 3 C-1.34 2.01 -0.68 1.02 0 0 Z " fill="#28A82B" transform="translate(859,240)"/>
<path d="M0 0 C0.90621094 0.48210937 1.81242188 0.96421875 2.74609375 1.4609375 C16.66663629 8.73923933 28.69526174 11.18956168 44.29296875 6.9375 C47.85569137 5.70365667 50.7883162 3.95493797 54 2 C54.66 2.33 55.32 2.66 56 3 C44.7191183 10.68864563 35.39216755 13.37905541 21.703125 11.5625 C13.63462154 10.01828881 6.6022565 6.93682243 0 2 C0 1.34 0 0.68 0 0 Z " fill="#25A72A" transform="translate(639,220)"/>
<path d="M0 0 C0 3 0 3 -2 5.5 C-9.39222691 11.6601891 -18.61105911 12.35116235 -27.9453125 12.29296875 C-32.41286905 11.86449466 -36.2380182 10.44841571 -40 8 C-40.33 7.34 -40.66 6.68 -41 6 C-39.865625 6.495 -38.73125 6.99 -37.5625 7.5 C-29.19186957 10.2725226 -18.04460942 10.7506985 -9.8125 7.3125 C-6.1447321 5.32162987 -3.05982598 2.82445475 0 0 Z " fill="#26A72A" transform="translate(848,219)"/>
<path d="M0 0 C10.39572181 -0.4364616 20.14318547 3.35213354 28.02734375 10.1015625 C37.08002647 18.81364924 37.08002647 18.81364924 38 24 C36.05669955 22.13443157 34.20264342 20.24674199 32.4921875 18.1640625 C26.92653843 11.4076234 20.62372376 6.1982041 12 4 C10.99839844 3.74347656 9.99679687 3.48695312 8.96484375 3.22265625 C5.98035173 2.46518868 2.99221338 1.72626538 0 1 C0 0.67 0 0.34 0 0 Z " fill="#25A429" transform="translate(525,99)"/>
<path d="M0 0 C8.68973458 4.08928686 12.760049 13.45720785 16 22 C18.51092223 29.80646912 18.51092223 29.80646912 17.03515625 33.25390625 C16.69355469 33.83011719 16.35195312 34.40632813 16 35 C15.85304688 34.12859375 15.70609375 33.2571875 15.5546875 32.359375 C13.51350591 21.51999691 10.47238303 11.53100714 2 4 C0.6875 1.6875 0.6875 1.6875 0 0 Z " fill="#27A72C" transform="translate(1027,110)"/>
<path d="M0 0 C0.66 0.33 1.32 0.66 2 1 C1.25234375 1.59167969 0.5046875 2.18335937 -0.265625 2.79296875 C-1.25046875 3.58316406 -2.2353125 4.37335938 -3.25 5.1875 C-4.71179687 6.35345703 -4.71179687 6.35345703 -6.203125 7.54296875 C-8.83575483 9.855712 -10.90972082 12.19803053 -13 15 C-10.36 17.31 -7.72 19.62 -5 22 C-8.77910478 22 -9.46106101 21.00296038 -12.1875 18.5 C-12.90292969 17.8503125 -13.61835937 17.200625 -14.35546875 16.53125 C-14.89816406 16.0259375 -15.44085937 15.520625 -16 15 C-11.30217584 9.06590633 -6.01350104 4.57548992 0 0 Z " fill="#24A327" transform="translate(1335,110)"/>
<path d="M0 0 C3.18726347 1.38788934 5.11621984 2.99461733 7.4375 5.5625 C10.18041041 8.39351246 11.90352003 9.88620889 16 10 C16.99 10 17.98 10 19 10 C17.68 11.32 16.36 12.64 15 14 C10.94772191 12.38873705 8.23778153 9.49978002 5.25 6.4375 C4.74339844 5.93025391 4.23679687 5.42300781 3.71484375 4.90039062 C0 1.14048812 0 1.14048812 0 0 Z " fill="#26A429" transform="translate(1330,133)"/>
<path d="M0 0 C0.33 0.66 0.66 1.32 1 2 C0.07421875 4.28515625 0.07421875 4.28515625 -1.3125 7.0625 C-3.67804623 12.04328901 -5.02363932 16.58563622 -6 22 C-6.33 22 -6.66 22 -7 22 C-7.47714645 14.68375437 -6.0558722 7.93696029 -1.8125 1.875 C-1.214375 1.25625 -0.61625 0.6375 0 0 Z " fill="#25A427" transform="translate(630,148)"/>
<path d="M0 0 C7.36095182 0.31323199 13.30883089 1.93914605 20 5 C20 5.33 20 5.66 20 6 C16.06388731 6.35782843 13.46697423 5.45202437 9.9140625 3.80078125 C6.70503347 2.45822829 3.38624296 1.77230102 0 1 C0 0.67 0 0.34 0 0 Z " fill="#28A62B" transform="translate(1403,99)"/>
</svg>
