<?xml version="1.0" encoding="UTF-8"?>
<svg version="1.1" xmlns="http://www.w3.org/2000/svg" width="2042" height="2132">
<path d="M0 0 C7.61284876 0.0185241 15.22567585 0.01884919 22.83854333 0.01891059 C37.05880239 0.0195258 51.27901423 0.03427187 65.49925377 0.05696548 C79.88917395 0.07987078 94.27907911 0.09608239 108.66901543 0.1042849 C109.58118519 0.10480876 110.49335496 0.10533262 111.43316623 0.10587236 C116.08511823 0.10851358 120.73707029 0.11104739 125.38902237 0.11354328 C158.97665858 0.13178304 192.56426772 0.16458267 226.15188362 0.20521225 C259.3951863 0.24538226 292.63848577 0.27925421 325.88180306 0.30475677 C327.43273153 0.30595084 327.43273153 0.30595084 329.01499189 0.30716902 C338.45911412 0.31443675 347.90323641 0.32162734 357.34735876 0.32872542 C380.82014969 0.34636822 404.2929398 0.36497782 427.76572945 0.38424457 C429.36874563 0.38555918 429.36874563 0.38555918 431.00414597 0.38690035 C482.93795183 0.42957493 534.87174533 0.48339112 586.80553963 0.53813423 C604.81860105 0.55711549 622.83166251 0.57604736 640.8447242 0.59477485 C641.96195766 0.59593645 643.07919113 0.59709804 644.23028016 0.59829484 C696.20718379 0.65226782 748.18409358 0.69830505 800.1610065 0.74230655 C803.53707301 0.74516473 806.91313952 0.74802632 810.28920603 0.75088861 C832.66333758 0.76985236 855.03746925 0.78867958 877.41160099 0.80741539 C921.92724121 0.84469343 966.44288073 0.88277344 1010.95851979 0.92140476 C1013.07827618 0.92324431 1015.19803257 0.9250833 1017.31778897 0.92692173 C1112.69489823 1.00964518 1208.07199767 1.10169606 1303.44909432 1.1978022 C1304.34181249 1.19870168 1305.23453067 1.19960116 1306.15430091 1.2005279 C1319.31289867 1.21378833 1332.47149639 1.22708781 1345.63009407 1.24042 C1346.40264442 1.24120258 1347.17519477 1.24198517 1347.97115574 1.24279147 C1378.67604189 1.27390046 1409.38092741 1.30560574 1440.08581307 1.3372065 C1440.08581307 42.5872065 1440.08581307 83.8372065 1440.08581307 126.3372065 C1439.42581307 126.3372065 1438.76581307 126.3372065 1438.08581307 126.3372065 C1438.08581307 416.0772065 1438.08581307 705.8172065 1438.08581307 1004.3372065 C1438.74581307 1004.3372065 1439.40581307 1004.3372065 1440.08581307 1004.3372065 C1440.08581307 1045.5872065 1440.08581307 1086.8372065 1440.08581307 1129.3372065 C1375.42836039 1129.93710371 1375.42836039 1129.93710371 1354.95382454 1130.0945002 C1354.25975224 1130.0998469 1353.56567993 1130.1051936 1352.85057514 1130.11070232 C1320.68942577 1130.35750651 1288.52837551 1130.47789652 1256.36633064 1130.54252876 C1255.6955628 1130.54388363 1255.02479496 1130.5452385 1254.33370082 1130.54663442 C1236.74083268 1130.58197026 1219.14795482 1130.60947758 1201.55506907 1130.63428761 C1190.95328596 1130.64929427 1180.35150706 1130.66622346 1169.7497287 1130.68426575 C1168.97446167 1130.68558335 1168.19919464 1130.68690096 1167.40043467 1130.68825849 C1164.24536195 1130.69362401 1161.09028925 1130.69899848 1157.93521657 1130.70438539 C1128.62272287 1130.7544187 1099.31022401 1130.80014657 1069.99771984 1130.84356464 C1044.73370311 1130.88100664 1019.46969321 1130.92144046 994.20568611 1130.96489204 C992.60508445 1130.9676439 991.00448279 1130.97039569 989.40388113 1130.97314741 C988.61208456 1130.97450871 987.820288 1130.97587002 987.00449759 1130.97727257 C983.0066308 1130.98414439 979.008764 1130.99100945 975.01089718 1130.99786724 C974.2197856 1130.99922459 973.42867401 1131.00058193 972.61358935 1131.00198041 C950.7741299 1131.03940848 928.93466656 1131.07442933 907.09520217 1131.10884388 C906.3000807 1131.11009717 905.50495923 1131.11135046 904.68574317 1131.11264173 C898.01683506 1131.12315239 898.01683506 1131.12315239 895.11913831 1131.12771044 C885.56746079 1131.14274582 876.01578423 1131.15822099 866.46410886 1131.17456624 C724.33794792 1131.41567108 582.21239496 1131.3372065 440.08581307 1131.3372065 C440.08581307 1460.0172065 440.08581307 1788.6972065 440.08581307 2127.3372065 C-29.91418693 2132.3372065 -29.91418693 2132.3372065 -79.91418693 2132.3372065 C-79.91418693 2131.6772065 -79.91418693 2131.0172065 -79.91418693 2130.3372065 C-80.47774895 2130.32786079 -81.04131096 2130.31851509 -81.62195061 2130.30888618 C-157.60180729 2128.77074083 -234.5186331 2110.36605067 -302.91418693 2077.3372065 C-303.67505607 2076.96998482 -304.43592522 2076.60276314 -305.219851 2076.22441353 C-309.18026835 2074.30023997 -313.1135049 2072.32867783 -317.02649162 2070.30986275 C-318.30354587 2069.65184617 -319.58292145 2068.9983185 -320.86438225 2068.34892525 C-339.71082841 2058.79194129 -357.7614376 2047.67176781 -374.91418693 2035.3372065 C-375.6771508 2034.790644 -376.44011467 2034.2440815 -377.22619865 2033.6809565 C-386.44444073 2027.05343802 -395.44682524 2020.28007338 -404.01965568 2012.83330025 C-406.70732949 2010.51558963 -409.44976198 2008.29640457 -412.22668693 2006.0872065 C-423.99802031 1996.4638032 -434.7184392 1985.62328579 -445.47668693 1974.8997065 C-446.40457024 1973.97649605 -447.33245354 1973.0532856 -448.28845451 1972.10209907 C-453.37171595 1967.00685207 -458.2472924 1961.81483434 -462.91418693 1956.3372065 C-463.86336854 1955.25400026 -464.81383598 1954.17191904 -465.76574943 1953.09111275 C-473.56649459 1944.1481504 -480.83535714 1934.85919088 -487.91418693 1925.3372065 C-488.72073723 1924.2541523 -488.72073723 1924.2541523 -489.54358147 1923.14921821 C-534.77272314 1862.1503728 -565.92108944 1791.95379332 -583.91418693 1718.3372065 C-584.18424553 1717.24810982 -584.45430412 1716.15901314 -584.73254631 1715.03691353 C-591.39819163 1687.84354939 -595.43318347 1660.11090019 -598.22668693 1632.2747065 C-598.30799858 1631.47255714 -598.38931023 1630.67040779 -598.47308586 1629.84395088 C-600.99297958 1604.60567082 -601.05861406 1579.43406778 -601.03645313 1554.09668596 C-601.03298918 1548.85182921 -601.03539534 1543.60697443 -601.03703062 1538.36211724 C-601.03909582 1529.18594103 -601.03747523 1520.00977133 -601.03339241 1510.83359588 C-601.02733841 1497.1891196 -601.02705836 1483.5446474 -601.0279344 1469.90017002 C-601.02924608 1446.94405782 -601.02592265 1423.98794929 -601.01991699 1401.03183807 C-601.01398692 1378.31021038 -601.01014038 1355.58858387 -601.00906418 1332.86695541 C-601.00902977 1332.16032223 -601.00899535 1331.45368904 -601.0089599 1330.72564273 C-601.00864668 1324.27127855 -601.00835899 1317.81691438 -601.00810192 1311.3625502 C-601.00746267 1295.32043535 -601.00650344 1279.27832053 -601.00532673 1263.23620571 C-601.00527341 1262.50582493 -601.00522009 1261.77544415 -601.00516516 1261.02293062 C-601.00254603 1225.52685872 -600.99623945 1190.0307876 -600.98962639 1154.53471626 C-600.98733465 1142.22262317 -600.98505925 1129.91053007 -600.98285149 1117.59843696 C-600.98264606 1116.45298202 -600.98264606 1116.45298202 -600.98243649 1115.28438656 C-600.97608794 1079.75955384 -600.97236538 1044.23472098 -600.96931669 1008.70988784 C-600.96911863 1006.40251028 -600.96891943 1004.09513272 -600.96872001 1001.78775517 C-600.96740019 986.49615586 -600.96612554 971.20455655 -600.96488115 955.91295724 C-600.96240489 925.48859924 -600.95966322 895.06424127 -600.9567391 864.6398833 C-600.95659986 863.19112041 -600.95646081 861.74235751 -600.95632194 860.29359461 C-600.9481261 774.81033861 -600.9345794 689.32708347 -600.91418693 571.3372065 C-559.25857524 570.32121597 -517.58218691 570.3372065 -475.91418693 570.3372065 C-475.58418693 777.9072065 -475.25418693 985.4772065 -474.91418693 1199.3372065 C-469.46918693 1192.9022065 -469.46918693 1192.9022065 -463.91418693 1186.3372065 C-459.28918693 1181.1497065 -459.28918693 1181.1497065 -457.06970451 1178.70878853 C-455.66730772 1177.16581849 -454.27340951 1175.61506664 -452.88952873 1174.05546821 C-447.24873298 1167.70586412 -441.36950554 1161.64137962 -435.35168693 1155.6497065 C-434.45772209 1154.75187446 -433.56375725 1153.85404243 -432.64270256 1152.92900337 C-427.56164353 1147.85537823 -422.3817006 1142.990114 -416.91418693 1138.3372065 C-415.79620949 1137.36415502 -414.67899309 1136.3902283 -413.56262443 1135.4153315 C-349.88493146 1080.25044188 -272.89092549 1041.99472568 -108.91418693 1010.3372065 C-108.58418693 1009.0172065 -108.25418693 1007.6972065 -107.91418693 1006.3372065 C-20.6615684 1006.16225428 66.5910536 1005.98898986 400.79133244 1005.3508781 C405.6525891 1005.3417679 410.51384575 1005.3326534 415.37510239 1005.32353489 C495.60259563 1005.17304827 575.83009251 1005.02462477 716.0671196 1004.77885401 C718.46172132 1004.77470492 720.85632302 1004.77055215 723.25092473 1004.7663982 C798.45687349 1004.63594797 873.66283076 1004.5084879 1109.60534432 1004.2747065 C1111.45942571 1004.27416391 1113.3135071 1004.27362096 1115.16758849 1004.27307762 C1116.96739898 1004.27256959 1118.76720947 1004.27206464 1120.56701996 1004.27156318 C1121.32522686 1004.27134253 1122.08343376 1004.27112188 1122.86461663 1004.27089454 C1186.27169543 1004.25403282 1249.67874279 1004.30356879 1313.08581307 1004.3372065 C1313.08581307 880.5872065 1313.08581307 756.8372065 1313.08581307 629.3372065 C1024.66581307 629.3372065 736.24581307 629.3372065 439.08581307 629.3372065 C439.08581307 588.0872065 439.08581307 546.8372065 439.08581307 504.3372065 C727.50581307 504.3372065 1015.92581307 504.3372065 1313.08581307 504.3372065 C1313.08581307 379.5972065 1313.08581307 254.8572065 1313.08581307 126.3372065 C1211.84941153 126.35947395 1211.84941153 126.35947395 1110.61301093 126.38563671 C1108.05447989 126.386364 1105.49594884 126.38709114 1102.9374178 126.38781546 C1043.15532231 126.40474247 983.37323027 126.42713076 923.59113838 126.45384468 C921.6494422 126.45471085 919.70774601 126.45557703 917.76604983 126.45644319 C877.0048968 126.474644 836.24374418 126.4936648 795.48259198 126.51363219 C775.00540732 126.52366234 754.52822258 126.53353501 734.05103778 126.54325874 C730.96222722 126.5447264 727.87341666 126.54619855 724.78460611 126.54767089 C677.24918587 126.57028996 629.71376721 126.5895418 582.17834236 126.59898628 C580.64650623 126.59929073 580.64650623 126.59929073 579.08372391 126.59960133 C562.61968905 126.60285295 546.15565414 126.60582068 529.69161923 126.60875072 C482.24142674 126.61719957 434.79123894 126.62776475 387.3410516 126.65218986 C386.36424402 126.65269166 385.38743645 126.65319345 384.38102865 126.65371045 C362.93216933 126.66476654 341.48331076 126.67690103 320.03445263 126.69005508 C311.4027418 126.69532971 302.77103087 126.70044927 294.13931992 126.70551552 C293.19464626 126.70607372 292.24997261 126.70663192 291.27667248 126.70720704 C260.89351538 126.72508328 230.51037228 126.73036107 200.12721043 126.72896024 C169.49375165 126.72760598 138.8603245 126.73875203 108.22687795 126.76700884 C103.98303712 126.77092033 99.73919618 126.77469012 95.49535515 126.77837433 C94.6635216 126.77910159 93.83168806 126.77982886 92.97464744 126.78057817 C79.86130158 126.79167735 66.74799391 126.78947215 53.63464717 126.78156464 C40.70493601 126.77404631 27.77529683 126.78096537 14.84560113 126.80269879 C7.94333727 126.81391605 1.04123604 126.81867102 -5.86102988 126.80571894 C-33.80539689 126.75761828 -61.25946799 127.00729082 -88.91418693 131.3372065 C-89.62829864 131.44872602 -90.34241034 131.56024554 -91.07816179 131.67514444 C-173.61004966 144.61672519 -256.08109239 172.55702475 -330.91418693 229.3372065 C-331.86680412 230.09646431 -332.81942131 230.85572212 -333.80090568 231.63798775 C-339.1658883 235.97037956 -344.36181677 240.45293906 -349.45715568 245.09892525 C-351.07397035 246.57179457 -352.70137993 248.03313074 -354.33996818 249.48173775 C-359.05993645 253.65970008 -363.63392713 257.95507755 -368.10168693 262.3997065 C-368.81397453 263.10510567 -368.81397453 263.10510567 -369.54065178 263.82475532 C-373.52694067 267.82822057 -377.23488434 272.05191312 -380.91418693 276.3372065 C-381.45599602 276.96699409 -381.9978051 277.59678169 -382.55603264 278.24565376 C-398.50351453 296.9271277 -411.6685991 317.07166186 -423.91418693 338.3372065 C-424.35601311 339.10065376 -424.79783928 339.86410103 -425.25305412 340.65068306 C-464.7577757 409.66181663 -473.66999483 490.4765959 -476.91418693 568.3372065 C-518.16418693 568.3372065 -559.41418693 568.3372065 -601.91418693 568.3372065 C-601.91418693 523.96070047 -601.91418693 523.96070047 -600.72668693 510.2747065 C-600.66138786 509.47021065 -600.59608879 508.6657148 -600.52881096 507.83684028 C-594.37892499 432.22211044 -575.82573708 358.48999282 -473.10949943 190.7434565 C-471.91202118 189.43091805 -470.72208905 188.11062681 -469.57312248 186.75541939 C-464.1395707 180.37463439 -458.22229142 174.49404276 -452.28991936 168.58256782 C-450.48057761 166.77858564 -448.67664374 164.96931985 -446.87317131 163.15947212 C-441.05696454 157.33961003 -435.21923723 151.63271185 -428.91418693 146.3372065 C-427.90416505 145.46064668 -426.89500392 144.58309374 -425.88684318 143.704394 C-417.15774534 136.2290055 -408.11094747 129.22623766 -398.91418693 122.3372065 C-398.26127678 121.84687935 -397.60836662 121.3565522 -396.93567131 120.85136665 C-375.28829542 104.63794646 -352.38391817 90.4137261 -328.50744865 77.72197212 C-326.10359896 76.43834988 -323.71256432 75.13398519 -321.32434318 73.8215815 C-254.5767603 37.45762101 -178.04131351 16.48511975 -103.16418693 5.5872065 C-101.90267815 5.40077583 -100.64116936 5.21434517 -99.34143303 5.02226509 C-95.78777345 4.52765388 -92.23400691 4.0888672 -88.6710392 3.6693775 C-86.81947496 3.44628395 -84.96914485 3.21271989 -83.12016139 2.96916071 C-55.52218336 -0.5953549 -27.77106901 -0.06999759 0 0 Z M41.13781502 1131.59965767 C33.90311959 1131.63618323 26.66847145 1131.66349983 19.43371346 1131.68364204 C-82.27568655 1131.97318501 -182.00330231 1135.85223343 -336.91418693 1235.3372065 C-337.68504631 1236.01654243 -338.45590568 1236.69587837 -339.25012443 1237.39580025 C-349.42436785 1246.36823174 -359.20012493 1255.93090477 -367.91418693 1266.3372065 C-368.71856193 1267.26404243 -369.52293693 1268.19087837 -370.35168693 1269.14580025 C-388.67592587 1290.3249025 -404.5253396 1313.755228 -417.91418693 1338.3372065 C-418.45253166 1339.31963325 -418.99087639 1340.30206001 -419.54553459 1341.31425728 C-432.80614989 1365.68582512 -443.34011999 1390.94427723 -451.91418693 1417.3372065 C-452.21131584 1418.24003364 -452.50844475 1419.14286079 -452.81457756 1420.07304634 C-467.77952055 1465.88892028 -474.92390451 1514.22598534 -475.91418693 1562.3372065 C-475.936101 1563.21473579 -475.95801506 1564.09226509 -475.98059318 1564.99638618 C-478.05438874 1656.41620697 -453.42639357 1750.31964917 -358.91418693 1884.3372065 C-355.49986395 1887.90277597 -352.02859065 1891.40773704 -348.53918693 1894.8997065 C-347.67035881 1895.78078071 -346.80153068 1896.66185493 -345.90637443 1897.56962837 C-339.89057926 1903.59877221 -333.56515187 1909.02514175 -326.91418693 1914.3372065 C-325.87491767 1915.21232618 -324.83978546 1916.09243731 -323.81262443 1916.98173775 C-315.5927493 1924.04370477 -306.89172888 1930.28028996 -297.91418693 1936.3372065 C-297.09692131 1936.88924751 -296.27965568 1937.44128853 -295.43762443 1938.01005806 C-280.52952213 1947.98868464 -264.96962291 1956.3618375 -248.91418693 1964.3372065 C-248.10111076 1964.74696724 -247.28803459 1965.15672798 -246.45031975 1965.57890571 C-205.2356308 1986.29679473 -158.73211293 1997.21364803 -113.16418693 2002.5872065 C-112.46033867 2002.67038124 -111.7564904 2002.75355598 -111.0313134 2002.83925117 C-82.26195556 2006.19394768 -53.29018059 2006.51662787 -24.35621596 2006.44324335 C-22.25015615 2006.4384049 -20.14410151 2006.43550977 -18.03803752 2006.43316699 C12.53281261 2006.39811131 43.10094868 2006.12315726 73.66977994 2005.78833909 C78.92386847 2005.73082687 84.17797102 2005.67477614 89.43208458 2005.619599 C90.1972443 2005.61156164 90.96240402 2005.60352428 91.75075039 2005.59524336 C93.30749149 2005.57889561 94.86423261 2005.56255035 96.42097375 2005.54620755 C110.7606504 2005.39550481 125.1002785 2005.2405533 139.43989239 2005.08400733 C151.67534516 2004.95054234 163.91083542 2004.82109473 176.14635994 2004.69438423 C190.52761517 2004.54545203 204.90883928 2004.39391294 219.2900249 2004.23839386 C220.82503881 2004.22180202 222.36005276 2004.20521397 223.89506676 2004.18862976 C224.64949831 2004.18047814 225.40392987 2004.17232652 226.18122299 2004.16392788 C231.4369555 2004.1073189 236.69270513 2004.05253813 241.94846489 2003.99852432 C248.3381346 2003.93281456 254.72776651 2003.86425959 261.11736787 2003.7921985 C264.3607152 2003.75569001 267.60406461 2003.72078953 270.84745743 2003.68853821 C274.38402228 2003.65315044 277.9205001 2003.61280711 281.45699837 2003.57135261 C282.44707811 2003.56259261 283.43715785 2003.55383261 284.45724001 2003.54480715 C294.36390428 2003.41877743 304.16429647 2002.83328233 314.08581307 2002.3372065 C314.08581307 1714.9072065 314.08581307 1427.4772065 314.08581307 1131.3372065 C177.61180726 1131.23620151 177.61180726 1131.23620151 41.13781502 1131.59965767 Z " fill="#3BD641" transform="translate(601.914186934242,-0.33720649538736325)"/>
</svg>
